<?xml version="1.0" encoding="utf-8"?><!-- Uploaded to: SVG Repo, www.svgrepo.com, Generator: SVG Repo Mixer Tools -->
<svg fill="#000000" width="800px" height="800px" viewBox="0 0 24 24" id="inbox-in" data-name="Line Color" xmlns="http://www.w3.org/2000/svg" class="icon line-color"><line id="secondary" x1="12" y1="3" x2="12" y2="12" style="fill: none; stroke: rgb(44, 169, 188); stroke-linecap: round; stroke-linejoin: round; stroke-width: 2;"></line><polyline id="secondary-2" data-name="secondary" points="9 9 12 12 15 9" style="fill: none; stroke: rgb(44, 169, 188); stroke-linecap: round; stroke-linejoin: round; stroke-width: 2;"></polyline><path id="primary" d="M8,5H6L4,15H7.38a1,1,0,0,1,.9.55l.44.9a1,1,0,0,0,.9.55h4.76a1,1,0,0,0,.9-.55l.44-.9a1,1,0,0,1,.9-.55H20L18,5H16" style="fill: none; stroke: rgb(0, 0, 0); stroke-linecap: round; stroke-linejoin: round; stroke-width: 2;"></path><path id="primary-2" data-name="primary" d="M8.28,15.55l.44.9a1,1,0,0,0,.9.55h4.76a1,1,0,0,0,.9-.55l.44-.9a1,1,0,0,1,.9-.55H20v5a1,1,0,0,1-1,1H5a1,1,0,0,1-1-1V15H7.38A1,1,0,0,1,8.28,15.55Z" style="fill: none; stroke: rgb(0, 0, 0); stroke-linecap: round; stroke-linejoin: round; stroke-width: 2;"></path></svg>